<?xml version="1.0" encoding="iso-8859-1"?>
<!-- Uploaded to: SVG Repo, www.svgrepo.com, Generator: SVG Repo Mixer Tools -->
<svg fill="#ffffff" height="800px" width="800px" version="1.1" id="Layer_1" xmlns="http://www.w3.org/2000/svg" xmlns:xlink="http://www.w3.org/1999/xlink"
	 viewBox="0 0 512.019 512.019" xml:space="preserve">
<g>
	<g>
		<g>
			<path d="M248.436,295.417c4.16,4.16,10.88,4.16,15.04,0L434.143,124.75c4.053-4.267,3.947-10.987-0.213-15.04
				c-4.16-3.947-10.667-3.947-14.827,0L256.009,272.803L92.916,109.71c-4.267-4.053-10.987-3.947-15.04,0.213
				c-3.947,4.16-3.947,10.667,0,14.827L248.436,295.417z"/>
			<path d="M501.343,383.95H10.996c-5.333,0-10.133,3.84-10.88,9.067c-0.96,6.613,4.16,12.267,10.56,12.267h490.347
				c5.333,0,10.133-3.84,10.88-9.067C512.863,389.603,507.743,383.95,501.343,383.95z"/>
		</g>
	</g>
</g>
</svg>
